<?xml version="1.0" encoding="iso-8859-1"?>
<!-- Uploaded to: SVG Repo, www.svgrepo.com, Generator: SVG Repo Mixer Tools -->
<svg fill="#000000" height="800px" width="800px" version="1.1" id="Layer_1" xmlns="http://www.w3.org/2000/svg" xmlns:xlink="http://www.w3.org/1999/xlink" 
	 viewBox="0 0 512 512" xml:space="preserve">
<g>
	<g>
		<g>
			<path d="M335.106,283.345c-11.435-7.262-23.031-9.318-35.439-6.323l-25.378,6.144l16.853-19.942
				c8.866-10.496,12.484-23.851,10.189-37.606c-3.063-18.347-17.894-33.613-36.062-37.129c-13.867-2.662-27.887,0.819-38.511,9.609
				c-10.641,8.772-16.742,21.717-16.742,35.49c0,10.829,3.849,21.35,10.854,29.636l16.862,19.951l-25.395-6.153
				c-12.279-2.961-23.799-0.964-35.149,6.144c-13.875,8.713-22.656,22.076-23.501,35.763c-0.751,12.177,3.635,23.979,12.348,33.246
				c9.25,9.847,22.17,15.488,35.447,15.488c8.875,0,16.922-2.569,23.919-7.637l13.534-9.805v16.717
				c0,16.043-3.174,32.077-5.82,42.667h45.739c-2.637-10.513-5.786-26.462-5.786-42.667v-16.691l13.534,9.771
				c6.912,5.001,15.189,7.646,23.927,7.646c13.295,0,26.24-5.641,35.524-15.488c8.704-9.225,13.116-20.975,12.407-33.084
				C357.668,305.293,349.152,292.271,335.106,283.345z"/>
			<path d="M418.133,0H93.867c-14.114,0-25.6,11.486-25.6,25.6v460.8c0,14.123,11.486,25.6,25.6,25.6h324.267
				c14.114,0,25.6-11.477,25.6-25.6V25.6C443.733,11.486,432.247,0,418.133,0z M104.38,130.901
				c-1.587-4.437,0.725-9.318,5.163-10.906c4.429-1.587,9.318,0.734,10.906,5.154c2.432,6.81,8.9,11.383,16.085,11.383
				c9.412,0,17.067-7.654,17.067-17.067V97.655c-5.043,2.944-10.82,4.745-17.067,4.745c-18.816,0-34.133-15.309-34.133-34.133
				s15.317-34.133,34.133-34.133c18.825,0,34.133,15.309,34.133,34.133v51.2c0,18.833-15.309,34.133-34.133,34.133
				C122.155,153.6,109.227,144.478,104.38,130.901z M358.468,363.896c-12.493,13.244-29.969,20.83-47.94,20.83
				c-6.767,0-13.338-1.118-19.524-3.311c1.673,14.771,5.291,27.682,6.63,32.094c0.922,3.098,0.333,6.468-1.579,9.037
				c-1.929,2.586-5.009,4.122-8.243,4.122h-63.633c-3.234,0-6.315-1.536-8.235-4.122c-1.911-2.569-2.509-5.931-1.587-9.011
				c1.331-4.446,4.932-17.417,6.622-32.06c-6.127,2.159-12.646,3.251-19.499,3.251c-17.971,0-35.422-7.595-47.881-20.855
				c-11.972-12.732-17.997-29.065-16.947-45.995c1.195-19.447,12.664-37.359,31.462-49.152c9.668-6.067,19.729-9.412,30.08-10.001
				c-3.439-7.876-5.248-16.435-5.248-25.139c0-18.884,8.363-36.617,22.946-48.657c14.575-12.023,33.766-16.836,52.617-13.193
				c25.421,4.924,45.372,25.446,49.655,51.072c2.065,12.339,0.478,24.789-4.352,35.917c10.487,0.597,20.668,4.019,30.438,10.223
				c18.739,11.895,30.131,29.815,31.258,49.169C376.482,334.95,370.432,351.215,358.468,363.896z"/>
			<path d="M136.535,51.203c-9.412,0-17.067,7.654-17.067,17.067c0,9.412,7.654,17.067,17.067,17.067
				c9.412,0,17.067-7.654,17.067-17.067C153.602,58.858,145.947,51.203,136.535,51.203z"/>
		</g>
	</g>
</g>
</svg>