<?xml version="1.0" encoding="iso-8859-1"?>
<!-- Uploaded to: SVG Repo, www.svgrepo.com, Generator: SVG Repo Mixer Tools -->
<svg fill="#000000" height="800px" width="800px" version="1.1" id="Layer_1" xmlns="http://www.w3.org/2000/svg" xmlns:xlink="http://www.w3.org/1999/xlink" 
	 viewBox="0 0 512 512" xml:space="preserve">
<g>
	<g>
		<g>
			<path d="M309.052,204.797c-22.502,0-38.357,20.07-45.107,37.248L256,262.278l-7.936-20.232
				c-6.75-17.178-22.613-37.248-45.116-37.248c-17.28,0-33.476,8.124-44.45,22.289c-11.443,14.788-24.866,55.543,6.741,87.151
				c14.302,14.302,71.825,72.559,90.761,91.742c18.935-19.183,76.459-77.44,90.761-91.742c31.607-31.608,18.193-72.363,6.741-87.151
				C342.537,212.921,326.332,204.797,309.052,204.797z"/>
			<path d="M418.133,0H93.867c-14.114,0-25.6,11.477-25.6,25.6v460.8c0,14.114,11.486,25.6,25.6,25.6h324.267
				c14.114,0,25.6-11.486,25.6-25.6V25.6C443.733,11.477,432.247,0,418.133,0z M119.467,105.549v39.518
				c0,4.71-3.814,8.533-8.533,8.533s-8.533-3.823-8.533-8.533v-102.4c0-4.719,3.814-8.533,8.533-8.533s8.533,3.814,8.533,8.533
				v36.668l36.19-42.223c3.072-3.593,8.465-3.985,12.032-0.922c3.584,3.063,3.994,8.448,0.922,12.023l-30.891,36.045l39.893,55.851
				c2.739,3.831,1.843,9.165-1.988,11.895c-1.502,1.075-3.234,1.596-4.949,1.596c-2.662,0-5.282-1.246-6.946-3.575l-37.444-52.429
				L119.467,105.549z M358.827,326.306c-17.178,17.178-96.751,97.818-96.751,97.818L256,430.285l-6.076-6.161
				c0,0-79.573-80.64-96.751-97.818c-38.212-38.221-25.284-87.552-8.175-109.67c14.225-18.372,35.345-28.902,57.95-28.902
				c20.984,0,40.277,12.023,53.052,32.282c12.774-20.258,32.068-32.282,53.052-32.282c22.605,0,43.725,10.53,57.95,28.902
				C384.12,238.754,397.047,288.085,358.827,326.306z"/>
		</g>
	</g>
</g>
</svg>